<svg width="32" height="64" viewBox="0 0 32 64" fill="none" xmlns="http://www.w3.org/2000/svg">
<path fill-rule="evenodd" clip-rule="evenodd" d="M31.2 0H0.800003V30.4H31.2V0ZM16 20.8C18.651 20.8 20.8 18.651 20.8 16C20.8 13.349 18.651 11.2 16 11.2C13.349 11.2 11.2 13.349 11.2 16C11.2 18.651 13.349 20.8 16 20.8Z" fill="#161616"/>
<path fill-rule="evenodd" clip-rule="evenodd" d="M16 64C24.8366 64 32 56.8366 32 48C32 39.1634 24.8366 32 16 32C7.16344 32 0 39.1634 0 48C0 56.8366 7.16344 64 16 64ZM20 44H12V52H20V44Z" fill="#161616"/>
</svg>
